<svg width="20" height="20" viewBox="0 0 20 20" fill="none" xmlns="http://www.w3.org/2000/svg">
<g clip-path="url(#clip0)">
<path d="M12.3739 13.5295C13.151 12.8608 13.6439 11.8706 13.6439 10.7674V10.5753C13.6439 8.56618 12.0093 6.93161 10.0002 6.93161C7.99102 6.93161 6.35645 8.56618 6.35645 10.5753V10.7674C6.35645 11.8706 6.84934 12.8608 7.62642 13.5295C5.11739 14.3001 3.28809 16.6389 3.28809 19.3972C3.28809 19.715 3.54566 19.9725 3.8634 19.9725H16.1369C16.4547 19.9725 16.7123 19.7149 16.7123 19.3972C16.7123 16.6389 14.883 14.3001 12.3739 13.5295Z" fill="#14A2F5"/>
<path d="M13.068 2.25649C13.0105 2.07961 12.8711 1.94141 12.6938 1.88551L11.3105 1.44961L10.4684 0.268786C10.3605 0.117418 10.1859 0.0274963 9.99995 0.0274963C9.81397 0.0274963 9.63948 0.117418 9.53151 0.268786L8.68948 1.44969L7.30623 1.88559C7.12884 1.94153 6.98947 2.07969 6.93197 2.25657C6.87451 2.43336 6.90607 2.62715 7.0167 2.77661L7.87959 3.94231L7.8667 5.39263C7.86506 5.57857 7.95338 5.75384 8.10385 5.86322C8.20342 5.93556 8.32205 5.97306 8.44205 5.97306C8.50338 5.97306 8.56502 5.96325 8.62467 5.94329L9.99999 5.48286L11.3753 5.94326C11.5517 6.00244 11.7457 5.97251 11.8961 5.86314C12.0466 5.75384 12.1349 5.57853 12.1332 5.39255L12.1204 3.94223L12.9832 2.77653C13.0939 2.62711 13.1254 2.43336 13.068 2.25649Z" fill="#14A2F5"/>
<path d="M19.972 3.98274C19.9145 3.8059 19.7751 3.6677 19.5977 3.6118L18.2145 3.17594L17.3725 1.99504C17.2645 1.84368 17.09 1.75375 16.904 1.75375C16.718 1.75375 16.5436 1.84368 16.4356 1.99504L15.5936 3.17594L14.2103 3.6118C14.0329 3.6677 13.8935 3.80586 13.836 3.98274C13.7785 4.15957 13.8101 4.35336 13.9208 4.50282L14.7837 5.66856L14.7708 7.11887C14.7691 7.30485 14.8575 7.48012 15.0079 7.58946C15.1584 7.69883 15.3523 7.72852 15.5287 7.66961L16.904 7.20922L18.2793 7.66961C18.339 7.68961 18.4006 7.69934 18.462 7.69934C18.5819 7.69934 18.7006 7.6618 18.8002 7.58946C18.9506 7.48016 19.0389 7.30485 19.0373 7.11887L19.0244 5.66856L19.8873 4.50282C19.9979 4.35336 20.0295 4.15957 19.972 3.98274Z" fill="#14A2F5"/>
<path d="M6.16392 3.9827C6.10646 3.80586 5.96705 3.66766 5.7897 3.61176L4.40646 3.1759L3.56435 1.99504C3.45638 1.84368 3.28189 1.75375 3.09591 1.75375C2.90993 1.75375 2.73544 1.84368 2.62747 1.99504L1.78544 3.17594L0.402153 3.6118C0.22477 3.6677 0.085395 3.80586 0.027934 3.98274C-0.0295661 4.15957 0.00203551 4.35336 0.112661 4.50282L0.975553 5.66856L0.962662 7.11887C0.961022 7.30481 1.04934 7.48008 1.19981 7.58942C1.35028 7.69879 1.5443 7.72852 1.72063 7.66957L3.09595 7.20918L4.47126 7.66957C4.53083 7.6895 4.59247 7.69926 4.6538 7.69926C4.77376 7.69926 4.89244 7.66172 4.99201 7.58938C5.14244 7.48008 5.2308 7.30477 5.22916 7.11883L5.21626 5.66852L6.07916 4.50278C6.18982 4.35336 6.22142 4.15957 6.16392 3.9827Z" fill="#14A2F5"/>
</g>
<defs>
<clipPath id="clip0">
<rect width="20" height="20" fill="white"/>
</clipPath>
</defs>
</svg>
