<svg width="20" height="20" viewBox="0 0 20 20" fill="none" xmlns="http://www.w3.org/2000/svg">
<g clip-path="url(#clip0)">
<path d="M14.7858 12.3917L16.27 11.0958C16.53 10.8692 16.5575 10.4742 16.33 10.2142C16.1033 9.95416 15.7083 9.92749 15.4475 10.1542L12.7133 12.5408C12.5783 12.6592 12.5 12.8308 12.5 13.0117C12.5 13.1925 12.5783 13.3642 12.7142 13.4825L15.4483 15.8683C15.5675 15.9717 15.7133 16.0225 15.8592 16.0225C16.0333 16.0225 16.2067 15.95 16.33 15.8083C16.5567 15.5483 16.53 15.1533 16.27 14.9267L14.805 13.6483C16.99 13.7142 18.7492 15.5383 18.7492 17.7833V19.3741C18.7492 19.7191 19.0292 19.9991 19.3742 19.9991C19.7192 19.9991 20 19.72 20 19.375V17.7841C20 14.8417 17.67 12.4458 14.7858 12.3917Z" fill="#14A2F5"/>
<path d="M7.68333 0L3.63333 0.0166667C3.10833 0.0166667 2.61667 0.308333 2.36667 0.766667L0.25 4.6L7.275 4.58333L7.68333 0Z" fill="#14A2F5"/>
<path d="M16.4 4.56667L14.2584 0.733337C14 0.275004 13.5167 -0.0166626 12.9833 -0.0166626L8.93335 4.06802e-06L9.35835 4.58334L16.4 4.56667Z" fill="#14A2F5"/>
<path d="M16.6667 8.48332C16.4167 8.38332 16.1417 8.33332 15.8584 8.33332C15.3084 8.33332 14.775 8.53332 14.35 8.89999L11.6167 11.2833C11.1167 11.7167 10.8334 12.35 10.8334 13.0083C10.8334 13.675 11.1167 14.3 11.6167 14.7417L13.8167 16.6583L1.3417 16.6917C1.33337 16.6917 1.33337 16.6917 1.33337 16.6917C0.616699 16.6917 0.0250326 16.1 0.0250326 15.375L-0.00830078 5.84999L7.70003 5.83332H8.95003L16.6584 5.80832L16.6667 8.48332Z" fill="#14A2F5"/>
</g>
<defs>
<clipPath id="clip0">
<rect width="20" height="20" fill="white"/>
</clipPath>
</defs>
</svg>
