<svg width="20" height="20" viewBox="0 0 20 20" fill="none" xmlns="http://www.w3.org/2000/svg">
<g clip-path="url(#clip0)">
<path d="M18.7216 9.61087C18.6588 9.59768 18.5995 9.58527 18.5468 9.57156C17.9492 9.41615 17.6764 9.33097 17.4748 8.94158L16.7108 7.39493C16.4653 6.92097 15.8313 6.53534 15.2976 6.53534H13.9375V4.74935C13.9375 4.42867 13.6766 4.16776 13.3559 4.16776L3.88302 4.17727C3.5709 4.17727 3.33554 4.4253 3.33554 4.75424V5.28212H0.908843C0.407721 5.28217 0 5.68984 0 6.19101C0 6.69218 0.407721 7.09985 0.908843 7.09985H3.3355V7.97095H1.74668C1.24556 7.97095 0.837841 8.37867 0.837841 8.87979C0.837841 9.38091 1.24556 9.78863 1.74668 9.78863H3.3355V10.6597H2.58453C2.0834 10.6597 1.67568 11.0674 1.67568 11.5686C1.67568 12.0697 2.0834 12.4774 2.58453 12.4774H3.3355V13.3885C3.3355 13.7092 3.59641 13.9701 3.91709 13.9701H4.90247C5.05593 15.0219 5.96369 15.8322 7.05748 15.8322C8.15135 15.8322 9.05916 15.0219 9.21266 13.9701H13.2005C13.2213 13.9701 13.2425 13.9687 13.2637 13.9673C13.416 15.0204 14.3243 15.8322 15.419 15.8322C16.5129 15.8322 17.4207 15.0219 17.5742 13.9701H18.9896C19.5467 13.9701 20 13.5168 20 12.9597V11.2453C20 9.87909 19.2307 9.71768 18.7216 9.61087ZM15.419 12.8625C15.8558 12.8625 16.2111 13.2177 16.2111 13.6543C16.2111 14.0909 15.8558 14.4461 15.419 14.4461C14.9825 14.4461 14.6273 14.0909 14.6273 13.6543C14.6273 13.2177 14.9825 12.8625 15.419 12.8625ZM13.9375 9.48772V7.37885H14.9769C15.3763 7.37885 15.8691 7.67859 16.052 8.03153L16.7318 9.40785C16.7462 9.4357 16.7612 9.46225 16.7767 9.48768H13.9375V9.48772ZM7.84953 13.6543C7.84953 14.0908 7.49422 14.4461 7.05748 14.4461C6.62092 14.4461 6.26578 14.0909 6.26578 13.6543C6.26578 13.2177 6.62092 12.8625 7.05748 12.8625C7.49422 12.8625 7.84953 13.2177 7.84953 13.6543Z" fill="#14A2F5"/>
</g>
<defs>
<clipPath id="clip0">
<rect width="20" height="20" fill="white"/>
</clipPath>
</defs>
</svg>
