<svg width="20" height="20" viewBox="0 0 20 20" fill="none" xmlns="http://www.w3.org/2000/svg">
<path d="M5.3125 8.20312C4.3432 8.20312 3.55469 8.99164 3.55469 9.96094V14.7266C3.55469 15.6959 4.3432 16.4844 5.3125 16.4844C6.2818 16.4844 7.07031 15.6959 7.07031 14.7266V9.96094C7.07031 8.99164 6.2818 8.20312 5.3125 8.20312Z" fill="#14A2F5"/>
<path d="M2.38281 9.96092C2.38281 9.7919 2.40512 9.62862 2.43273 9.46741C1.72656 9.69565 1.21094 10.3516 1.21094 11.1328V13.5547C1.21094 14.3359 1.72656 14.9918 2.43273 15.2201C2.40512 15.0589 2.38281 14.8956 2.38281 14.7265V9.96092Z" fill="#14A2F5"/>
<path d="M14.6875 8.20312C13.7182 8.20312 12.9297 8.99164 12.9297 9.96094V14.7266C12.9297 15.6959 13.7182 16.4844 14.6875 16.4844C14.8637 16.4844 15.0305 16.4505 15.1911 16.402C14.973 17.125 14.3088 17.6562 13.5156 17.6562H11.6499C11.4072 16.9757 10.7629 16.4844 10 16.4844C9.0307 16.4844 8.24219 17.2729 8.24219 18.2422C8.24219 19.2115 9.0307 20 10 20C10.7629 20 11.4072 19.5087 11.6499 18.8281H13.5156C15.131 18.8281 16.4453 17.5138 16.4453 15.8984V14.7266V9.96094C16.4453 8.99164 15.6568 8.20312 14.6875 8.20312Z" fill="#14A2F5"/>
<path d="M17.5674 9.46741C17.595 9.62862 17.6173 9.7919 17.6173 9.96092V14.7265C17.6173 14.8956 17.595 15.0589 17.5674 15.2201C18.2736 14.9918 18.7892 14.3359 18.7892 13.5547V11.1328C18.7892 10.3516 18.2736 9.69565 17.5674 9.46741Z" fill="#14A2F5"/>
<path d="M10 0C5.15344 0 1.21094 3.9425 1.21094 8.78906V8.80402C1.56004 8.53973 1.96395 8.34633 2.40965 8.25973C2.68352 4.30668 5.97867 1.17188 10 1.17188C14.0213 1.17188 17.3165 4.30668 17.5904 8.25969C18.036 8.34629 18.4399 8.53973 18.7891 8.80399V8.78906C18.7891 3.9425 14.8466 0 10 0Z" fill="#14A2F5"/>
</svg>
